<svg xmlns="http://www.w3.org/2000/svg" width="3482.8853125" height="290.0"><line x1="34.7588671875" x2="3452.8853125" y1="45.0" y2="45.0" stroke="#1967d2" stroke-width="1" /><line x1="34.7588671875" x2="3452.8853125" y1="95.0" y2="95.0" stroke="#1967d2" stroke-width="1" /><line x1="34.7588671875" x2="3452.8853125" y1="145.0" y2="145.0" stroke="#1967d2" stroke-width="1" /><line x1="34.7588671875" x2="3452.8853125" y1="195.0" y2="195.0" stroke="#1967d2" stroke-width="1" /><line x1="34.7588671875" x2="3452.8853125" y1="245.0" y2="245.0" stroke="#1967d2" stroke-width="1" /><line x1="2452.4195703125" x2="2730.5176171875" y1="5.0" y2="5.0" stroke="black" stroke-width="1" /><line x1="2452.4195703125" x2="2730.5176171875" y1="285.0" y2="285.0" stroke="black" stroke-width="1" /><line x1="2172.79125" x2="2442.4195703125" y1="5.0" y2="5.0" stroke="black" stroke-width="1" /><line x1="2172.79125" x2="2442.4195703125" y1="285.0" y2="285.0" stroke="black" stroke-width="1" /><line x1="1893.4998046875" x2="2162.79125" y1="5.0" y2="5.0" stroke="black" stroke-width="1" /><line x1="1893.4998046875" x2="2162.79125" y1="285.0" y2="285.0" stroke="black" stroke-width="1" /><line x1="1171.191171875" x2="1431.501015625" y1="5.0" y2="5.0" stroke="black" stroke-width="1" /><line x1="1171.191171875" x2="1431.501015625" y1="285.0" y2="285.0" stroke="black" stroke-width="1" /><line x1="900.5663281249999" x2="1161.191171875" y1="5.0" y2="5.0" stroke="black" stroke-width="1" /><line x1="900.5663281249999" x2="1161.191171875" y1="285.0" y2="285.0" stroke="black" stroke-width="1" /><line x1="630.2827343749999" x2="890.5663281249999" y1="5.0" y2="5.0" stroke="black" stroke-width="1" /><line x1="630.2827343749999" x2="890.5663281249999" y1="285.0" y2="285.0" stroke="black" stroke-width="1" /><line x1="322.30658203125006" x2="322.30658203125006" y1="95.0" y2="145.0" stroke="black" stroke-width="3" /><line x1="389.89302734375" x2="389.89302734375" y1="145.0" y2="195.0" stroke="black" stroke-width="3" /><line x1="457.24322265625" x2="457.24322265625" y1="195.0" y2="245.0" stroke="black" stroke-width="3" /><line x1="524.67873046875" x2="524.67873046875" y1="95.0" y2="245.0" stroke="black" stroke-width="3" /><line x1="594.374609375" x2="594.374609375" y1="45.0" y2="95.0" stroke="black" stroke-width="3" /><line x1="655.972109375" x2="655.972109375" y1="45.0" y2="145.0" stroke="black" stroke-width="3" /><line x1="926.4263281249999" x2="926.4263281249999" y1="45.0" y2="195.0" stroke="black" stroke-width="3" /><line x1="1196.893671875" x2="1196.893671875" y1="45.0" y2="245.0" stroke="black" stroke-width="3" /><line x1="1322.04859375" x2="1322.04859375" y1="95.0" y2="145.0" stroke="black" stroke-width="3" /><line x1="1550.9534375" x2="1550.9534375" y1="145.0" y2="195.0" stroke="black" stroke-width="3" /><line x1="1698.7434765625" x2="1698.7434765625" y1="195.0" y2="245.0" stroke="black" stroke-width="3" /><line x1="1775.2371484375" x2="1775.2371484375" y1="95.0" y2="245.0" stroke="black" stroke-width="3" /><line x1="1853.4465039062502" x2="1853.4465039062502" y1="45.0" y2="95.0" stroke="black" stroke-width="3" /><line x1="1923.69310546875" x2="1923.69310546875" y1="45.0" y2="145.0" stroke="black" stroke-width="3" /><line x1="2203.15298828125" x2="2203.15298828125" y1="45.0" y2="195.0" stroke="black" stroke-width="3" /><line x1="2482.56255859375" x2="2482.56255859375" y1="45.0" y2="245.0" stroke="black" stroke-width="3" /><line x1="2616.61158203125" x2="2616.61158203125" y1="95.0" y2="145.0" stroke="black" stroke-width="3" /><line x1="2854.42365234375" x2="2854.42365234375" y1="145.0" y2="195.0" stroke="black" stroke-width="3" /><line x1="3006.6530859375002" x2="3006.6530859375002" y1="195.0" y2="245.0" stroke="black" stroke-width="3" /><line x1="3083.2867578125" x2="3083.2867578125" y1="95.0" y2="245.0" stroke="black" stroke-width="3" /><line x1="3161.88658203125" x2="3161.88658203125" y1="45.0" y2="95.0" stroke="black" stroke-width="3" /><line x1="3242.28412109375" x2="3242.28412109375" y1="45.0" y2="145.0" stroke="black" stroke-width="3" /><line x1="3322.44541015625" x2="3322.44541015625" y1="45.0" y2="195.0" stroke="black" stroke-width="3" /><line x1="3402.69201171875" x2="3402.69201171875" y1="45.0" y2="245.0" stroke="black" stroke-width="3" /><line x1="2452.4195703125" x2="2452.4195703125" y1="5.0" y2="15.0" stroke="black" stroke-width="3" /><line x1="2730.5176171875" x2="2730.5176171875" y1="5.0" y2="15.0" stroke="black" stroke-width="3" /><line x1="2452.4195703125" x2="2452.4195703125" y1="275.0" y2="285.0" stroke="black" stroke-width="3" /><line x1="2730.5176171875" x2="2730.5176171875" y1="275.0" y2="285.0" stroke="black" stroke-width="3" /><line x1="2172.79125" x2="2172.79125" y1="5.0" y2="15.0" stroke="black" stroke-width="3" /><line x1="2442.4195703125" x2="2442.4195703125" y1="5.0" y2="15.0" stroke="black" stroke-width="3" /><line x1="2172.79125" x2="2172.79125" y1="275.0" y2="285.0" stroke="black" stroke-width="3" /><line x1="2442.4195703125" x2="2442.4195703125" y1="275.0" y2="285.0" stroke="black" stroke-width="3" /><line x1="1893.4998046875" x2="1893.4998046875" y1="5.0" y2="15.0" stroke="black" stroke-width="3" /><line x1="2162.79125" x2="2162.79125" y1="5.0" y2="15.0" stroke="black" stroke-width="3" /><line x1="1893.4998046875" x2="1893.4998046875" y1="275.0" y2="285.0" stroke="black" stroke-width="3" /><line x1="2162.79125" x2="2162.79125" y1="275.0" y2="285.0" stroke="black" stroke-width="3" /><line x1="1171.191171875" x2="1171.191171875" y1="5.0" y2="15.0" stroke="black" stroke-width="3" /><line x1="1431.501015625" x2="1431.501015625" y1="5.0" y2="15.0" stroke="black" stroke-width="3" /><line x1="1171.191171875" x2="1171.191171875" y1="275.0" y2="285.0" stroke="black" stroke-width="3" /><line x1="1431.501015625" x2="1431.501015625" y1="275.0" y2="285.0" stroke="black" stroke-width="3" /><line x1="900.5663281249999" x2="900.5663281249999" y1="5.0" y2="15.0" stroke="black" stroke-width="3" /><line x1="1161.191171875" x2="1161.191171875" y1="5.0" y2="15.0" stroke="black" stroke-width="3" /><line x1="900.5663281249999" x2="900.5663281249999" y1="275.0" y2="285.0" stroke="black" stroke-width="3" /><line x1="1161.191171875" x2="1161.191171875" y1="275.0" y2="285.0" stroke="black" stroke-width="3" /><line x1="630.2827343749999" x2="630.2827343749999" y1="5.0" y2="15.0" stroke="black" stroke-width="3" /><line x1="890.5663281249999" x2="890.5663281249999" y1="5.0" y2="15.0" stroke="black" stroke-width="3" /><line x1="630.2827343749999" x2="630.2827343749999" y1="275.0" y2="285.0" stroke="black" stroke-width="3" /><line x1="890.5663281249999" x2="890.5663281249999" y1="275.0" y2="285.0" stroke="black" stroke-width="3" /><rect x="10.0" y="25.0" width="49.517734375" height="40" stroke="black" fill="white" stroke-width="0" /><text x="34.7588671875" y="45.0" dominant-baseline="middle" text-anchor="middle" font-size="14px" font-family="Arial:style=normal:variant=normal:weight=normal:stretch=normal:size=10.0">(0, 0): </text><rect x="10.0" y="75.0" width="49.517734375" height="40" stroke="black" fill="white" stroke-width="0" /><text x="34.7588671875" y="95.0" dominant-baseline="middle" text-anchor="middle" font-size="14px" font-family="Arial:style=normal:variant=normal:weight=normal:stretch=normal:size=10.0">(1, 0): </text><rect x="10.0" y="125.0" width="49.517734375" height="40" stroke="black" fill="white" stroke-width="0" /><text x="34.7588671875" y="145.0" dominant-baseline="middle" text-anchor="middle" font-size="14px" font-family="Arial:style=normal:variant=normal:weight=normal:stretch=normal:size=10.0">(1, 1): </text><rect x="10.0" y="175.0" width="49.517734375" height="40" stroke="black" fill="white" stroke-width="0" /><text x="34.7588671875" y="195.0" dominant-baseline="middle" text-anchor="middle" font-size="14px" font-family="Arial:style=normal:variant=normal:weight=normal:stretch=normal:size=10.0">(1, 2): </text><rect x="10.0" y="225.0" width="49.517734375" height="40" stroke="black" fill="white" stroke-width="0" /><text x="34.7588671875" y="245.0" dominant-baseline="middle" text-anchor="middle" font-size="14px" font-family="Arial:style=normal:variant=normal:weight=normal:stretch=normal:size=10.0">(1, 3): </text><rect x="79.51773437499999" y="25.0" width="198.90484375000003" height="40" stroke="black" fill="white" stroke-width="1" /><text x="178.97015625" y="45.0" dominant-baseline="middle" text-anchor="middle" font-size="18px" font-family="Arial:style=normal:variant=normal:weight=normal:stretch=normal:size=10.0">H</text><rect x="79.51773437499999" y="75.0" width="198.90484375000003" height="40" stroke="black" fill="white" stroke-width="1" /><text x="178.97015625" y="95.0" dominant-baseline="middle" text-anchor="middle" font-size="14px" font-family="Arial:style=normal:variant=normal:weight=normal:stretch=normal:size=10.0">Rx(3.14159265358979*a0)</text><rect x="79.51773437499999" y="125.0" width="198.90484375000003" height="40" stroke="black" fill="white" stroke-width="1" /><text x="178.97015625" y="145.0" dominant-baseline="middle" text-anchor="middle" font-size="14px" font-family="Arial:style=normal:variant=normal:weight=normal:stretch=normal:size=10.0">Rx(3.14159265358979*a1)</text><rect x="79.51773437499999" y="175.0" width="198.90484375000003" height="40" stroke="black" fill="white" stroke-width="1" /><text x="178.97015625" y="195.0" dominant-baseline="middle" text-anchor="middle" font-size="14px" font-family="Arial:style=normal:variant=normal:weight=normal:stretch=normal:size=10.0">Rx(3.14159265358979*a2)</text><rect x="79.51773437499999" y="225.0" width="198.90484375000003" height="40" stroke="black" fill="white" stroke-width="1" /><text x="178.97015625" y="245.0" dominant-baseline="middle" text-anchor="middle" font-size="14px" font-family="Arial:style=normal:variant=normal:weight=normal:stretch=normal:size=10.0">Rx(3.14159265358979*a3)</text><circle cx="322.30658203125006" cy="95.0" r="10.0" /><rect x="298.4225781250001" y="125.0" width="47.7680078125" height="40" stroke="black" fill="white" stroke-width="1" /><text x="322.30658203125006" y="145.0" dominant-baseline="middle" text-anchor="middle" font-size="14px" font-family="Arial:style=normal:variant=normal:weight=normal:stretch=normal:size=10.0">X^p0</text><circle cx="389.89302734375" cy="145.0" r="10.0" /><rect x="366.19058593750003" y="175.0" width="47.404882812500006" height="40" stroke="black" fill="white" stroke-width="1" /><text x="389.89302734375" y="195.0" dominant-baseline="middle" text-anchor="middle" font-size="14px" font-family="Arial:style=normal:variant=normal:weight=normal:stretch=normal:size=10.0">X^p1</text><circle cx="457.24322265625" cy="195.0" r="10.0" /><rect x="433.59546875" y="225.0" width="47.295507812500006" height="40" stroke="black" fill="white" stroke-width="1" /><text x="457.24322265625" y="245.0" dominant-baseline="middle" text-anchor="middle" font-size="14px" font-family="Arial:style=normal:variant=normal:weight=normal:stretch=normal:size=10.0">X^p2</text><circle cx="524.67873046875" cy="245.0" r="10.0" /><rect x="500.8909765625" y="75.0" width="47.57550781250001" height="40" stroke="black" fill="white" stroke-width="1" /><text x="524.67873046875" y="95.0" dominant-baseline="middle" text-anchor="middle" font-size="14px" font-family="Arial:style=normal:variant=normal:weight=normal:stretch=normal:size=10.0">X^p3</text><rect x="568.4664843749999" y="75.0" width="51.81625" height="40" stroke="black" fill="white" stroke-width="1" /><text x="594.374609375" y="95.0" dominant-baseline="middle" text-anchor="middle" font-size="14px" font-family="Arial:style=normal:variant=normal:weight=normal:stretch=normal:size=10.0">@^p4</text><circle cx="594.374609375" cy="45.0" r="10.0" /><rect x="630.2827343749999" y="125.0" width="51.378750000000004" height="40" stroke="black" fill="white" stroke-width="1" /><text x="655.972109375" y="145.0" dominant-baseline="middle" text-anchor="middle" font-size="14px" font-family="Arial:style=normal:variant=normal:weight=normal:stretch=normal:size=10.0">@^p5</text><circle cx="655.972109375" cy="45.0" r="10.0" /><rect x="681.6614843749999" y="75.0" width="198.90484375000003" height="40" stroke="black" fill="white" stroke-width="1" /><text x="781.1139062499999" y="95.0" dominant-baseline="middle" text-anchor="middle" font-size="14px" font-family="Arial:style=normal:variant=normal:weight=normal:stretch=normal:size=10.0">Rx(3.14159265358979*a4)</text><rect x="900.5663281249999" y="175.0" width="51.720000000000006" height="40" stroke="black" fill="white" stroke-width="1" /><text x="926.4263281249999" y="195.0" dominant-baseline="middle" text-anchor="middle" font-size="14px" font-family="Arial:style=normal:variant=normal:weight=normal:stretch=normal:size=10.0">@^p6</text><circle cx="926.4263281249999" cy="45.0" r="10.0" /><rect x="952.286328125" y="125.0" width="198.90484375000003" height="40" stroke="black" fill="white" stroke-width="1" /><text x="1051.73875" y="145.0" dominant-baseline="middle" text-anchor="middle" font-size="14px" font-family="Arial:style=normal:variant=normal:weight=normal:stretch=normal:size=10.0">Rx(3.14159265358979*a5)</text><rect x="1171.191171875" y="225.0" width="51.40500000000001" height="40" stroke="black" fill="white" stroke-width="1" /><text x="1196.893671875" y="245.0" dominant-baseline="middle" text-anchor="middle" font-size="14px" font-family="Arial:style=normal:variant=normal:weight=normal:stretch=normal:size=10.0">@^p7</text><circle cx="1196.893671875" cy="45.0" r="10.0" /><rect x="1222.596171875" y="175.0" width="198.90484375000003" height="40" stroke="black" fill="white" stroke-width="1" /><text x="1322.04859375" y="195.0" dominant-baseline="middle" text-anchor="middle" font-size="14px" font-family="Arial:style=normal:variant=normal:weight=normal:stretch=normal:size=10.0">Rx(3.14159265358979*a6)</text><circle cx="1322.04859375" cy="95.0" r="10.0" /><rect x="1222.596171875" y="125.0" width="198.90484375000003" height="40" stroke="black" fill="white" stroke-width="1" /><text x="1322.04859375" y="145.0" dominant-baseline="middle" text-anchor="middle" font-size="14px" font-family="Arial:style=normal:variant=normal:weight=normal:stretch=normal:size=10.0">X^p8</text><rect x="1451.501015625" y="225.0" width="198.90484375000003" height="40" stroke="black" fill="white" stroke-width="1" /><text x="1550.9534375" y="245.0" dominant-baseline="middle" text-anchor="middle" font-size="14px" font-family="Arial:style=normal:variant=normal:weight=normal:stretch=normal:size=10.0">Rx(3.14159265358979*a7)</text><circle cx="1550.9534375" cy="145.0" r="10.0" /><rect x="1451.501015625" y="175.0" width="198.90484375000003" height="40" stroke="black" fill="white" stroke-width="1" /><text x="1550.9534375" y="195.0" dominant-baseline="middle" text-anchor="middle" font-size="14px" font-family="Arial:style=normal:variant=normal:weight=normal:stretch=normal:size=10.0">X^p9</text><circle cx="1698.7434765625" cy="195.0" r="10.0" /><rect x="1670.405859375" y="225.0" width="56.675234375" height="40" stroke="black" fill="white" stroke-width="1" /><text x="1698.7434765625" y="245.0" dominant-baseline="middle" text-anchor="middle" font-size="14px" font-family="Arial:style=normal:variant=normal:weight=normal:stretch=normal:size=10.0">X^p10</text><circle cx="1775.2371484375" cy="245.0" r="10.0" /><rect x="1747.08109375" y="75.0" width="56.312109375000006" height="40" stroke="black" fill="white" stroke-width="1" /><text x="1775.2371484375" y="95.0" dominant-baseline="middle" text-anchor="middle" font-size="14px" font-family="Arial:style=normal:variant=normal:weight=normal:stretch=normal:size=10.0">X^p11</text><rect x="1823.3932031250001" y="75.0" width="60.1066015625" height="40" stroke="black" fill="white" stroke-width="1" /><text x="1853.4465039062502" y="95.0" dominant-baseline="middle" text-anchor="middle" font-size="14px" font-family="Arial:style=normal:variant=normal:weight=normal:stretch=normal:size=10.0">@^p12</text><circle cx="1853.4465039062502" cy="45.0" r="10.0" /><rect x="1893.4998046875" y="125.0" width="60.386601562500005" height="40" stroke="black" fill="white" stroke-width="1" /><text x="1923.69310546875" y="145.0" dominant-baseline="middle" text-anchor="middle" font-size="14px" font-family="Arial:style=normal:variant=normal:weight=normal:stretch=normal:size=10.0">@^p13</text><circle cx="1923.69310546875" cy="45.0" r="10.0" /><rect x="1953.88640625" y="75.0" width="198.90484375000003" height="40" stroke="black" fill="white" stroke-width="1" /><text x="2053.338828125" y="95.0" dominant-baseline="middle" text-anchor="middle" font-size="14px" font-family="Arial:style=normal:variant=normal:weight=normal:stretch=normal:size=10.0">Rx(3.14159265358979*a8)</text><rect x="2172.79125" y="175.0" width="60.723476562500004" height="40" stroke="black" fill="white" stroke-width="1" /><text x="2203.15298828125" y="195.0" dominant-baseline="middle" text-anchor="middle" font-size="14px" font-family="Arial:style=normal:variant=normal:weight=normal:stretch=normal:size=10.0">@^p14</text><circle cx="2203.15298828125" cy="45.0" r="10.0" /><rect x="2233.5147265625" y="125.0" width="198.90484375000003" height="40" stroke="black" fill="white" stroke-width="1" /><text x="2332.9671484375" y="145.0" dominant-baseline="middle" text-anchor="middle" font-size="14px" font-family="Arial:style=normal:variant=normal:weight=normal:stretch=normal:size=10.0">Rx(3.14159265358979*a9)</text><rect x="2452.4195703125" y="225.0" width="60.285976562500004" height="40" stroke="black" fill="white" stroke-width="1" /><text x="2482.56255859375" y="245.0" dominant-baseline="middle" text-anchor="middle" font-size="14px" font-family="Arial:style=normal:variant=normal:weight=normal:stretch=normal:size=10.0">@^p15</text><circle cx="2482.56255859375" cy="45.0" r="10.0" /><rect x="2512.705546875" y="175.0" width="207.81207031250003" height="40" stroke="black" fill="white" stroke-width="1" /><text x="2616.61158203125" y="195.0" dominant-baseline="middle" text-anchor="middle" font-size="14px" font-family="Arial:style=normal:variant=normal:weight=normal:stretch=normal:size=10.0">Rx(3.14159265358979*a10)</text><circle cx="2616.61158203125" cy="95.0" r="10.0" /><rect x="2512.705546875" y="125.0" width="207.81207031250003" height="40" stroke="black" fill="white" stroke-width="1" /><text x="2616.61158203125" y="145.0" dominant-baseline="middle" text-anchor="middle" font-size="14px" font-family="Arial:style=normal:variant=normal:weight=normal:stretch=normal:size=10.0">X^p16</text><rect x="2750.5176171875" y="225.0" width="207.81207031250003" height="40" stroke="black" fill="white" stroke-width="1" /><text x="2854.42365234375" y="245.0" dominant-baseline="middle" text-anchor="middle" font-size="14px" font-family="Arial:style=normal:variant=normal:weight=normal:stretch=normal:size=10.0">Rx(3.14159265358979*a11)</text><circle cx="2854.42365234375" cy="145.0" r="10.0" /><rect x="2750.5176171875" y="175.0" width="207.81207031250003" height="40" stroke="black" fill="white" stroke-width="1" /><text x="2854.42365234375" y="195.0" dominant-baseline="middle" text-anchor="middle" font-size="14px" font-family="Arial:style=normal:variant=normal:weight=normal:stretch=normal:size=10.0">X^p17</text><circle cx="3006.6530859375002" cy="195.0" r="10.0" /><rect x="2978.3296875" y="225.0" width="56.64679687500001" height="40" stroke="black" fill="white" stroke-width="1" /><text x="3006.6530859375002" y="245.0" dominant-baseline="middle" text-anchor="middle" font-size="14px" font-family="Arial:style=normal:variant=normal:weight=normal:stretch=normal:size=10.0">X^p18</text><circle cx="3083.2867578125" cy="245.0" r="10.0" /><rect x="3054.976484375" y="75.0" width="56.620546875" height="40" stroke="black" fill="white" stroke-width="1" /><text x="3083.2867578125" y="95.0" dominant-baseline="middle" text-anchor="middle" font-size="14px" font-family="Arial:style=normal:variant=normal:weight=normal:stretch=normal:size=10.0">X^p19</text><rect x="3131.59703125" y="75.0" width="60.5791015625" height="40" stroke="black" fill="white" stroke-width="1" /><text x="3161.88658203125" y="95.0" dominant-baseline="middle" text-anchor="middle" font-size="14px" font-family="Arial:style=normal:variant=normal:weight=normal:stretch=normal:size=10.0">@^p20</text><circle cx="3161.88658203125" cy="45.0" r="10.0" /><rect x="3212.1761328125" y="125.0" width="60.2159765625" height="40" stroke="black" fill="white" stroke-width="1" /><text x="3242.28412109375" y="145.0" dominant-baseline="middle" text-anchor="middle" font-size="14px" font-family="Arial:style=normal:variant=normal:weight=normal:stretch=normal:size=10.0">@^p21</text><circle cx="3242.28412109375" cy="45.0" r="10.0" /><rect x="3292.392109375" y="175.0" width="60.1066015625" height="40" stroke="black" fill="white" stroke-width="1" /><text x="3322.44541015625" y="195.0" dominant-baseline="middle" text-anchor="middle" font-size="14px" font-family="Arial:style=normal:variant=normal:weight=normal:stretch=normal:size=10.0">@^p22</text><circle cx="3322.44541015625" cy="45.0" r="10.0" /><rect x="3372.4987109375" y="225.0" width="60.386601562500005" height="40" stroke="black" fill="white" stroke-width="1" /><text x="3402.69201171875" y="245.0" dominant-baseline="middle" text-anchor="middle" font-size="14px" font-family="Arial:style=normal:variant=normal:weight=normal:stretch=normal:size=10.0">@^p23</text><circle cx="3402.69201171875" cy="45.0" r="10.0" /></svg>